#!OML:ASF E:/inclinewalkrobotboard/Project1/Captureday1/Session1/subject1.ASF
:FULLY-SPECIFIED
:DEGREES
113
root 0 0 0 -1.4783414638067014 -1.5648916523454068 -3.975075272187719
lowerback 20.02376653771937 3.0046047643125444 0.1023365012339037
upperback 2.2825816444757843 4.056805124222069 -0.5117919668595803
thorax -8.754499962859095 1.9528004904800484 -1.2687610637290205
lowerneck -8.565094658487286 -5.934937961721165 -1.4052466757639512
upperneck -1.2470424290178936 -8.54938428520556 5.701880537411813
head 1.2935122991306107 -3.923491281275182 1.4865596941381432
rclavicle -4.509298194908949E-16 1.1707474500053292E-15
rhumerus 36.08791472761852 -5.0179204686226235 -29.691030304802382
rradius 149.67319112295968
rwrist -23.355723614501727
rhand -19.696421454837516 -30.92656218741094
rfingers 7.12501999999996
rthumb 6.658738980522363 -60.756365608636685
lclavicle -1.3782699108800856E-15 1.228574131717699E-15
lhumerus -47.37245511712177 -6.121794162684862 79.67497861159421
lradius 61.96337738437221
lwrist 10.871693834285342
lhand -14.6349304489235 -19.73888153839679
lfingers 7.125019999999863
lthumb 11.450227335968933 10.016202610241049
rfemur -2.3582570742493405 8.55803192967349 35.1444099837784
rtibia 29.365084251978857
rfoot -20.111335822882477 -8.067472513947445
rtoes 4.660532597253152
lfemur -26.15384895270136 0.8356266854911261 -17.62905603359335
ltibia 42.33188654086268
lfoot -2.564480346958927 -4.2864495279282755
ltoes 11.106485506713767
114
root 0 0 0 -1.4672850867586331 -1.5420348437030675 -3.968191632540369
lowerback 20.107962335625317 2.984719723760751 0.05602674374556926
upperback 2.2801650537010913 4.028054413255022 -0.4896502025542582
thorax -8.80254024175617 1.9398858026513164 -1.2172682695816568
lowerneck -8.517022727689046 -5.935830830814506 -1.3683523370804462
upperneck -1.130821302194727 -8.546271674424295 5.646203860269902
head 1.3353062782222729 -3.922911924001398 1.461980759199688
rclavicle -2.3827020646299273E-16 1.107781109846023E-15
rhumerus 35.72820528422867 -5.713426881034325 -30.06231551229454
rradius 148.7822793339402
rwrist -22.543538839819842
rhand -19.804594870810867 -30.820061284815495
rfingers 7.125019999999963
rthumb 6.55568711515542 -60.65479093723883
lclavicle -1.188312108315969E-15 1.1569848636243195E-15
lhumerus -47.35757080876453 -6.098311320807917 79.6272603080386
lradius 61.94506562199511
lwrist 10.897428959988067
lhand -14.67376321377871 -19.67083290704442
lfingers 7.1250199999998625
lthumb 11.410521847937092 10.099881990067214
rfemur -5.187546093839253 8.285955803170268 34.6956840721046
rtibia 31.757626807885536
rfoot -18.54303049644802 -8.228869471477983
rtoes 4.618130980561354
lfemur -24.572832381471205 0.4573454755038191 -18.293543240014
ltibia 40.96894754626674
lfoot -1.6069859137706786 -5.0200166338064145
ltoes 11.972819734841664
115
root 0 0 0 -1.4500591128381903 -1.487378220440725 -3.961957652919228
lowerback 20.172667107676794 2.958125875604349 -0.00878331084866979
upperback 2.2743037848828185 3.989494710896733 -0.4550198595338866
thorax -8.841515529620512 1.923317490378723 -1.1404287453894717
lowerneck -8.446930158378777 -5.944860607864456 -1.3332311923839417
upperneck -0.8770446364285149 -8.556245003161274 5.593567409990322
head 1.4194871362595611 -3.9271303871133627 1.436696996186836
rclavicle 2.4750262020761525E-17 8.794449304296056E-16
rhumerus 35.2329191165382 -6.521467944603703 -30.556388651951526
rradius 147.5060963502715
rwrist -21.54155545883072
rhand -19.875205081681777 -30.654223329802715
rfingers 7.1250199999999655
rthumb 6.488472644151459 -60.49217435494095
lclavicle -9.765917684157551E-16 9.714655164660777E-16
lhumerus -47.33458838941302 -6.079940163333718 79.58823120902964
lradius 61.92953989360628
lwrist 10.925239539214754
lhand -14.711935288832944 -19.603777589924224
lfingers 7.125019999999861
lthumb 11.370860905896135 10.183352967929974
rfemur -9.327234428120136 7.913030611155836 34.09749147748896
rtibia 35.14279421460554
rfoot -16.372652329115922 -8.476742286694826
rtoes 5.037309616355261
lfemur -22.422483674726376 0.22079792068617365 -18.97127347643532
ltibia 40.86066306368755
lfoot -0.3579581933537064 -6.22133439969767
ltoes 12.199822964059507
116
root 0 0 0 -1.4297778822858316 -1.412044333563827 -3.9554633361502565
lowerback 20.22699732340572 2.9215141358067473 -0.09544429269715093
upperback 2.2735589534676888 3.9367394318962425 -0.4040405414393824
thorax -8.867885159796918 1.9009894739876412 -1.0317728401740993
lowerneck -8.343916762651403 -5.9589334797962605 -1.2937879581057616
upperneck -0.4945556631588115 -8.57226217652275 5.532618226961301
head 1.5414207465113448 -3.933866146913217 1.40678370258171
rclavicle 3.610878604251259E-16 5.192441002440392E-16
rhumerus 34.508548601792754 -7.434987748041918 -31.259967768026662
rradius 145.73315623371155
rwrist -20.274806952125076
rhand -19.908600967878336 -30.401025150928607
rfingers 7.125019999999967
rthumb 6.45670097043438 -60.24105384405325
lclavicle -7.657068887811872E-16 7.20193719400112E-16
lhumerus -47.30029742617409 -6.072106585928545 79.56381830960989
lradius 61.918340887465796
lwrist 10.955845902492078
lhand -14.747402701269678 -19.536058903681358
lfingers 7.125019999999859
lthumb 11.33348076663654 10.266896586781613
rfemur -13.800469751866615 7.364738374321646 33.344478786996454
rtibia 39.38681644780198
rfoot -13.98889387577737 -8.698843751777577
rtoes 5.765756479857259
lfemur -20.006098974315105 0.05282928580140034 -19.585223541903105
ltibia 41.534679838390474
lfoot 1.032802540746573 -7.647965177834938
ltoes 11.809273256029016
117
root 0 0 0 -1.3969945391345697 -1.2991313381872711 -3.9453470957656984
lowerback 20.307794195434298 2.84334248951495 -0.26573137321540297
upperback 2.300509733807389 3.8259883044335243 -0.29211508920038254
thorax -8.876825710729198 1.8536917415972223 -0.8045038780695984
lowerneck -8.10168011871114 -5.977776765814065 -1.2094859973391716
upperneck 0.23364449290648004 -8.583510832339655 5.39864280956591
head 1.7629125762722975 -3.9406466233040245 1.3445368515462337
rclavicle 9.414897959884743E-16 -1.1037499512571835E-16
rhumerus 32.84015715343213 -8.91622700088373 -32.76503848115379
rradius 142.15463266756228
rwrist -17.99046280364263
rhand -19.883253434077268 -29.908397076270276
rfingers 7.125019999999968
rthumb 6.480323266057008 -59.75173736121175
lclavicle -5.33502299158893E-16 3.349477641407766E-16
lhumerus -47.23441296639301 -6.092894818068866 79.58163382079633
lradius 61.91143604091294
lwrist 10.992087716535128
lhand -14.775766181880174 -19.457887522802856
lfingers 7.125019999999857
lthumb 11.30169211605903 10.358950881100863
rfemur -19.046783220907145 6.153324392975873 32.16212937721508
rtibia 46.55148907879393
rfoot -10.989030693565713 -8.503440991999476
rtoes 7.063274651433024
lfemur -16.491100195929036 -0.14950846469201506 -20.12917942247629
ltibia 43.34775655514711
lfoot 3.034721566494209 -9.71628561420848
ltoes 10.023888470882952
118
root 0 0 0 -1.3605093324404103 -1.228430540510419 -3.9411990124007947
lowerback 20.374122874127742 2.7773844417977784 -0.4014954690353634
upperback 2.3378095439265683 3.7341343097025073 -0.19827636323482922
thorax -8.869715379713163 1.8135602646583884 -0.6186336579237551
lowerneck -7.875626513056876 -5.984939322638885 -1.1287448935516158
upperneck 0.7687440603302083 -8.576114063983551 5.27331346784943
head 1.9200297540354523 -3.9406877320747506 1.2885751296108507
rclavicle 1.4041459900123075E-15 -4.646997584734503E-16
rhumerus 31.465375238482686 -9.890553707197366 -33.87620710115576
rradius 139.51988467558135
rwrist -16.540501151576414
rhand -19.811446253411894 -29.632136639364276
rfingers 7.125019999999968
rthumb 6.548074444155105 -59.47664073208232
lclavicle -4.060605433774164E-16 1.0148923455730727E-16
lhumerus -47.18840267709787 -6.126734602989528 79.64348627834745
lradius 61.9082303040833
lwrist 10.992172961595559
lhand -14.76517121990324 -19.44992801081763
lfingers 7.125019999999857
lthumb 11.310628750249172 10.365717620298232
rfemur -21.530155521491505 5.187787566556715 31.47404546915778
rtibia 51.51128698963272
rfoot -9.324468576101303 -7.875365706611169
rtoes 8.217350524500251
lfemur -14.60963429859958 -0.15899597102898388 -20.04865891481661
ltibia 45.334338062019214
lfoot 4.109982732856899 -10.866866091511895
ltoes 7.956306419931856
119
root 0 0 0 -1.3113704401759867 -1.1609886172974304 -3.9412701519078697
lowerback 20.436555183956315 2.7078154029218853 -0.5384914008784918
upperback 2.3806570454667613 3.6384379325384 -0.10118186697802478
thorax -8.855026818328614 1.7709750360434482 -0.4285861279988664
lowerneck -7.623806581265152 -5.987398621433906 -1.03786536887817
upperneck 1.2706191981428496 -8.558979892861267 5.136062637536811
head 2.062896329640111 -3.9376123803073844 1.228252597013059
rclavicle 1.7110663149255009E-15 -6.875232445649417E-16
rhumerus 30.206324471242844 -10.73007077573173 -34.75615016243161
rradius 137.27946163353377
rwrist -15.582865031301974
rhand -19.70691106648788 -29.52099503132616
rfingers 7.125019999999967
rthumb 6.647024111725134 -59.36508725390786
lclavicle -4.0328319060421646E-16 -5.9880529666387E-17
lhumerus -47.1326336632841 -6.190819716653525 79.75792294509533
lradius 61.91667916719976
lwrist 10.977770950094554
lhand -14.727301041580974 -19.48527335616602
lfingers 7.125019999999858
lthumb 11.346593107744916 10.317491939073918
rfemur -23.132399829482132 4.31600351859316 30.892015728163106
rtibia 55.84376048337014
rfoot -7.939716294608496 -7.094968955220887
rtoes 9.473580806409547
lfemur -13.3159421704549 0.02964916070644552 -19.533372379708187
ltibia 48.31765359480564
lfoot 4.7786357390174885 -11.721315772002981
ltoes 5.059452431466468
